# xmcd
#
# Track frame offsets: 
#        150
#        22045
#        37215
#        59747
#        78284
#        107352
#        130848
#        151729
#        169604
#        192647
#        217991
#        237102
#
# Disc length: 3406 seconds
#
# Revision: 0
# Processed by: cddbd v1.5.2PL0 Copyright (c) Steve Scherf et al.
# Submitted via: ExactAudioCopy v0.99pb5
#
DISCID=9d0d4c0c
DTITLE=Bonnie Raitt - Angel From Montgomery
DYEAR=1976
DGENRE=Blues
TTITLE0=Thought I Was A Child
TTITLE1=Any Day Woman
TTITLE2=Love Me Like A Man
TTITLE3=My First Night Alone Without You
TTITLE4=Give It Up Or Let Me Go
TTITLE5=Sugar Mama
TTITLE6=Fool Yourself
TTITLE7=Walk Out The Front Door
TTITLE8=Nothing Seems To Matter
TTITLE9=You Got To Know How
TTITLE10=Angel From Montgomery
TTITLE11=What Do You Want The Boy To Do?
EXTD=
EXTT0=
EXTT1=
EXTT2=
EXTT3=
EXTT4=
EXTT5=
EXTT6=
EXTT7=
EXTT8=
EXTT9=
EXTT10=
EXTT11=
PLAYORDER=
